<svg id="visual" viewBox="0 0 900 900" width="900" height="900" xmlns="http://www.w3.org/2000/svg" xmlns:xlink="http://www.w3.org/1999/xlink" version="1.1"><rect x="0" y="0" width="900" height="900" fill="#001220"></rect><path d="M0 638L21.5 625.7C43 613.3 86 588.7 128.8 593.7C171.7 598.7 214.3 633.3 257.2 641.5C300 649.7 343 631.3 385.8 619C428.7 606.7 471.3 600.3 514.2 606.7C557 613 600 632 642.8 640.2C685.7 648.3 728.3 645.7 771.2 640C814 634.3 857 625.7 878.5 621.3L900 617L900 901L878.5 901C857 901 814 901 771.2 901C728.3 901 685.7 901 642.8 901C600 901 557 901 514.2 901C471.3 901 428.7 901 385.8 901C343 901 300 901 257.2 901C214.3 901 171.7 901 128.8 901C86 901 43 901 21.5 901L0 901Z" fill="#c62368"></path><path d="M0 695L21.5 689.5C43 684 86 673 128.8 669.5C171.7 666 214.3 670 257.2 668.7C300 667.3 343 660.7 385.8 659.7C428.7 658.7 471.3 663.3 514.2 664.5C557 665.7 600 663.3 642.8 660.3C685.7 657.3 728.3 653.7 771.2 651.2C814 648.7 857 647.3 878.5 646.7L900 646L900 901L878.5 901C857 901 814 901 771.2 901C728.3 901 685.7 901 642.8 901C600 901 557 901 514.2 901C471.3 901 428.7 901 385.8 901C343 901 300 901 257.2 901C214.3 901 171.7 901 128.8 901C86 901 43 901 21.5 901L0 901Z" fill="#d53867"></path><path d="M0 745L21.5 730.7C43 716.3 86 687.7 128.8 687.5C171.7 687.3 214.3 715.7 257.2 730.7C300 745.7 343 747.3 385.8 745.5C428.7 743.7 471.3 738.3 514.2 733.7C557 729 600 725 642.8 729.3C685.7 733.7 728.3 746.3 771.2 754C814 761.7 857 764.3 878.5 765.7L900 767L900 901L878.5 901C857 901 814 901 771.2 901C728.3 901 685.7 901 642.8 901C600 901 557 901 514.2 901C471.3 901 428.7 901 385.8 901C343 901 300 901 257.2 901C214.3 901 171.7 901 128.8 901C86 901 43 901 21.5 901L0 901Z" fill="#e34c67"></path><path d="M0 811L21.5 811.3C43 811.7 86 812.3 128.8 802.2C171.7 792 214.3 771 257.2 764.8C300 758.7 343 767.3 385.8 773.8C428.7 780.3 471.3 784.7 514.2 789.3C557 794 600 799 642.8 793.8C685.7 788.7 728.3 773.3 771.2 773C814 772.7 857 787.3 878.5 794.7L900 802L900 901L878.5 901C857 901 814 901 771.2 901C728.3 901 685.7 901 642.8 901C600 901 557 901 514.2 901C471.3 901 428.7 901 385.8 901C343 901 300 901 257.2 901C214.3 901 171.7 901 128.8 901C86 901 43 901 21.5 901L0 901Z" fill="#ef5f67"></path><path d="M0 789L21.5 790.7C43 792.3 86 795.7 128.8 803.7C171.7 811.7 214.3 824.3 257.2 833.8C300 843.3 343 849.7 385.8 844.8C428.7 840 471.3 824 514.2 816C557 808 600 808 642.8 811.2C685.7 814.3 728.3 820.7 771.2 826.3C814 832 857 837 878.5 839.5L900 842L900 901L878.5 901C857 901 814 901 771.2 901C728.3 901 685.7 901 642.8 901C600 901 557 901 514.2 901C471.3 901 428.7 901 385.8 901C343 901 300 901 257.2 901C214.3 901 171.7 901 128.8 901C86 901 43 901 21.5 901L0 901Z" fill="#fa7268"></path></svg>